<svg width="295" height="37" viewBox="0 0 295 37" fill="none" xmlns="http://www.w3.org/2000/svg">
<path d="M12.66 29.24C15.93 29.24 18.75 28.1 20.67 25.94L18.72 24.05C17.1 25.76 15.12 26.57 12.81 26.57C8.07 26.57 4.56 23.15 4.56 18.5C4.56 13.85 8.07 10.43 12.81 10.43C15.12 10.43 17.1 11.21 18.72 12.92L20.67 11.03C18.75 8.87 15.93 7.76 12.69 7.76C6.3 7.76 1.56 12.29 1.56 18.5C1.56 24.71 6.3 29.24 12.66 29.24ZM39.9532 13.1L33.5332 23.84L27.2932 13.1H24.3232V29H26.9632V17.36L32.8432 27.2H34.1032L40.0432 17.39V29H42.6532V13.1H39.9532ZM55.0688 29.18C59.8388 29.18 63.3188 25.79 63.3188 21.05C63.3188 16.31 59.8388 12.95 55.0688 12.95C50.2988 12.95 46.7888 16.31 46.7888 21.05C46.7888 25.79 50.2988 29.18 55.0688 29.18ZM55.0688 26.66C52.0088 26.66 49.6988 24.44 49.6988 21.05C49.6988 17.66 52.0088 15.47 55.0688 15.47C58.1288 15.47 60.4088 17.66 60.4088 21.05C60.4088 24.44 58.1288 26.66 55.0688 26.66ZM78.7416 13.1H64.2216V15.62H70.0416V29H72.9216V15.62H78.7416V13.1ZM90.1165 12.95C87.7765 12.95 85.7365 13.85 84.4465 15.62V13.1H81.6865V34.82H84.5665V26.6C85.8865 28.31 87.8665 29.18 90.1165 29.18C94.7665 29.18 98.1565 25.94 98.1565 21.05C98.1565 16.19 94.7665 12.95 90.1165 12.95ZM89.8765 26.66C86.8465 26.66 84.5365 24.44 84.5365 21.05C84.5365 17.69 86.8465 15.47 89.8765 15.47C92.9365 15.47 95.2465 17.69 95.2465 21.05C95.2465 24.44 92.9365 26.66 89.8765 26.66ZM116.711 21.14C116.711 16.25 113.441 12.95 108.851 12.95C104.261 12.95 100.871 16.34 100.871 21.05C100.871 25.79 104.291 29.18 109.421 29.18C112.061 29.18 114.251 28.28 115.691 26.6L114.101 24.74C112.931 26.03 111.371 26.66 109.511 26.66C106.361 26.66 104.111 24.8 103.751 22.01H116.651C116.681 21.74 116.711 21.38 116.711 21.14ZM108.851 15.38C111.641 15.38 113.651 17.27 113.951 19.94H103.751C104.051 17.24 106.091 15.38 108.851 15.38ZM132.355 13.1H117.835V15.62H123.655V29H126.535V15.62H132.355V13.1ZM142.65 18.5L138.18 18.47V13.1H135.3V29L142.2 29.03C146.46 29.06 148.86 27.14 148.86 23.69C148.86 20.42 146.7 18.53 142.65 18.5ZM141.96 26.84L138.18 26.81V20.57L141.96 20.63C144.6 20.66 145.92 21.56 145.92 23.66C145.92 25.79 144.57 26.87 141.96 26.84ZM174.982 21.14C174.982 16.25 171.712 12.95 167.122 12.95C162.532 12.95 159.142 16.34 159.142 21.05C159.142 25.79 162.562 29.18 167.692 29.18C170.332 29.18 172.522 28.28 173.962 26.6L172.372 24.74C171.202 26.03 169.642 26.66 167.782 26.66C164.632 26.66 162.382 24.8 162.022 22.01H174.922C174.952 21.74 174.982 21.38 174.982 21.14ZM167.122 15.38C169.912 15.38 171.922 17.27 172.222 19.94H162.022C162.322 17.24 164.362 15.38 167.122 15.38ZM202.1 26.48V13.1H199.22V26.48H192.23V13.1H189.35V26.48H182.33V13.1H179.45V29H201.77V32.39H204.47V26.48H202.1ZM211.382 10.28C212.222 10.28 212.912 9.65 212.912 8.75C212.912 7.85 212.222 7.19 211.382 7.19C210.542 7.19 209.852 7.85 209.852 8.75C209.852 9.65 210.542 10.28 211.382 10.28ZM216.962 10.28C217.802 10.28 218.492 9.65 218.492 8.75C218.492 7.85 217.802 7.19 216.962 7.19C216.122 7.19 215.432 7.85 215.432 8.75C215.432 9.65 216.122 10.28 216.962 10.28ZM222.062 21.14C222.062 16.25 218.792 12.95 214.202 12.95C209.612 12.95 206.222 16.34 206.222 21.05C206.222 25.79 209.642 29.18 214.772 29.18C217.412 29.18 219.602 28.28 221.042 26.6L219.452 24.74C218.282 26.03 216.722 26.66 214.862 26.66C211.712 26.66 209.462 24.8 209.102 22.01H222.002C222.032 21.74 222.062 21.38 222.062 21.14ZM214.202 15.38C216.992 15.38 219.002 17.27 219.302 19.94H209.102C209.402 17.24 211.442 15.38 214.202 15.38Z" fill="#533738"/>
<path d="M294.707 19.7071C295.098 19.3166 295.098 18.6834 294.707 18.2929L288.343 11.9289C287.953 11.5384 287.319 11.5384 286.929 11.9289C286.538 12.3195 286.538 12.9526 286.929 13.3431L292.586 19L286.929 24.6569C286.538 25.0474 286.538 25.6805 286.929 26.0711C287.319 26.4616 287.953 26.4616 288.343 26.0711L294.707 19.7071ZM234 20H294V18H234V20Z" fill="#533738"/>
</svg>
